<svg width="87" height="91" viewBox="0 0 87 91" fill="none" xmlns="http://www.w3.org/2000/svg">
<path d="M2.07086 85.9454C0.441972 84.453 0.331258 81.9228 1.82357 80.2939L4.86341 76.9759C6.35573 75.347 6.24501 72.8167 4.61612 71.3244L1.29808 68.2846C-0.330807 66.7923 -0.441521 64.262 1.05079 62.6331L4.09063 59.3151C5.58295 57.6862 8.11319 57.5755 9.74208 59.0678L13.0601 62.1076C14.689 63.6 17.2192 63.4892 18.7116 61.8604L22.6103 57.6048C23.9208 56.1744 23.993 54.0225 22.9571 52.3824C19.2146 46.4567 17.5372 39.9175 17.925 32.7651C18.3739 24.488 21.4481 17.2387 27.1478 11.0174C33.5512 4.02803 41.464 0.36405 50.8863 0.0254889C60.3086 -0.313073 68.5145 2.71933 75.5038 9.12269C82.4932 15.5261 86.2308 23.4357 86.7165 32.8515C87.2023 42.2674 84.2434 50.47 77.8401 57.4594C72.1404 63.6807 65.1874 67.3764 56.9811 68.5465C49.8899 69.5576 43.2292 68.4578 36.9993 65.2472C35.2749 64.3585 33.1375 64.6184 31.8271 66.0488L27.9283 70.3044C26.436 71.9332 26.5467 74.4635 28.1756 75.9558L31.4937 78.9956C33.1226 80.488 33.2333 83.0182 31.741 84.6471L28.7011 87.9651C27.2088 89.594 24.6786 89.7047 23.0497 88.2124L19.7316 85.1726C18.1027 83.6803 15.5725 83.791 14.0802 85.4199L11.0403 88.7379C9.54803 90.3668 7.01779 90.4775 5.3889 88.9852L2.07086 85.9454ZM37.5059 50.5982C41.9606 54.6794 47.2051 56.5881 53.2392 56.324C59.2733 56.06 64.3309 53.7006 68.4122 49.2458C72.4935 44.791 74.4021 39.5466 74.1381 33.5125C73.874 27.4784 71.5146 22.4207 67.0598 18.3395C62.6051 14.2582 57.3606 12.3496 51.3265 12.6136C45.2924 12.8777 40.2348 15.2371 36.1535 19.6918C32.0722 24.1466 30.1636 29.391 30.4277 35.4251C30.6917 41.4592 33.0511 46.5169 37.5059 50.5982Z" fill="#F990FF"/>
</svg>
