<svg width="100" height="100" viewBox="0 0 100 100" fill="none" xmlns="http://www.w3.org/2000/svg">
<path d="M96 0C98.2091 0 100 1.79086 100 4V33.5C100 35.7091 98.2091 37.5 96 37.5H91.5C89.2909 37.5 87.5 35.7091 87.5 33.5V31.0202C87.5 27.4626 83.204 25.6752 80.6805 28.1829L65.0094 43.7554C63.6447 45.1115 63.4612 47.2357 64.3946 48.9179C65.5446 50.9903 66.4755 53.1479 67.1875 55.3906C68.2292 58.6719 68.75 62.0833 68.75 65.625C68.75 75.2083 65.4167 83.3333 58.75 90C52.0833 96.6667 43.9583 100 34.375 100C24.7917 100 16.6667 96.6667 10 90C3.33333 83.3333 0 75.2083 0 65.625C0 56.0417 3.33333 47.9167 10 41.25C16.6667 34.5833 24.7917 31.25 34.375 31.25C37.8125 31.25 41.1979 31.7448 44.5312 32.7344C46.7601 33.3961 48.8725 34.3022 50.8684 35.4529C52.5852 36.4426 54.7872 36.3066 56.1884 34.9054L71.7653 19.3284C74.2852 16.8086 72.5005 12.5 68.9369 12.5H66.5C64.2909 12.5 62.5 10.7091 62.5 8.5V4C62.5 1.79086 64.2909 0 66.5 0H96ZM34.375 43.75C28.3333 43.75 23.1771 45.8854 18.9062 50.1563C14.6354 54.4271 12.5 59.5833 12.5 65.625C12.5 71.6667 14.6354 76.8229 18.9062 81.0938C23.1771 85.3646 28.3333 87.5 34.375 87.5C40.4167 87.5 45.5729 85.3646 49.8438 81.0938C54.1146 76.8229 56.25 71.6667 56.25 65.625C56.25 59.5833 54.1146 54.4271 49.8438 50.1563C45.5729 45.8854 40.4167 43.75 34.375 43.75Z" fill="#9096FF"/>
</svg>
