<svg width="121" height="52" viewBox="0 0 121 52" fill="none" xmlns="http://www.w3.org/2000/svg">
<path d="M95.0416 8.64615C95.9331 8.66363 96.7284 8.94329 97.4275 9.48514C98.1267 10.027 98.686 10.6737 99.1055 11.4253C99.5425 12.1769 99.8658 12.9722 100.076 13.8112C100.285 14.6502 100.39 15.5066 100.39 16.3806C100.39 17.5342 100.207 18.6703 99.8396 19.789C99.49 20.8901 98.9045 21.869 98.083 22.7254C97.2789 23.5819 96.2652 24.0451 95.0416 24.115H85.8914C84.6679 24.0626 83.6454 23.6081 82.8239 22.7516C82.0024 21.8952 81.4168 20.9076 81.0672 19.789C80.7351 18.6703 80.5691 17.5342 80.5691 16.3806C80.5691 15.227 80.7439 14.0996 81.0935 12.9984C81.443 11.8798 82.0198 10.8922 82.8239 10.0357C83.6454 9.16178 84.6679 8.69859 85.8914 8.64615H86.3896H94.5435H95.0416ZM94.1502 20.6017C94.8144 20.5668 95.365 20.3221 95.802 19.8676C96.2564 19.3957 96.5798 18.8538 96.7721 18.2421C96.9643 17.6303 97.0605 17.0098 97.0605 16.3806C97.0605 15.7513 96.9556 15.1396 96.7458 14.5453C96.5536 13.9335 96.239 13.3917 95.802 12.9197C95.365 12.4478 94.8144 12.1944 94.1502 12.1594H86.7042C86.04 12.1944 85.4894 12.4478 85.0524 12.9197C84.6155 13.3917 84.2921 13.9335 84.0824 14.5453C83.8901 15.1396 83.794 15.7513 83.794 16.3806C83.794 17.0098 83.8901 17.6303 84.0824 18.2421C84.2746 18.8538 84.5892 19.3957 85.0262 19.8676C85.4807 20.3221 86.04 20.5668 86.7042 20.6017H94.1502Z" fill="white"/>
<path d="M64.0778 4.60091C64.5672 4.60091 64.9867 4.76696 65.3363 5.09906C65.6859 5.41368 65.8694 5.81569 65.8869 6.3051L65.7558 16.2495C65.7383 16.9661 65.782 17.6303 65.8869 18.2421C66.0092 18.8364 66.2889 19.3695 66.7259 19.8414C67.1628 20.3133 67.7134 20.5668 68.3776 20.6017H86.6053C87.0947 20.6192 87.4968 20.8027 87.8114 21.1523C88.1435 21.5019 88.3095 21.9214 88.3095 22.4108C88.2921 22.8827 88.1173 23.2848 87.7852 23.6169C87.4705 23.9315 87.0773 24.0975 86.6053 24.115H67.4862C66.2627 24.0451 65.2489 23.6343 64.4449 22.8827C63.6583 22.1137 63.0903 21.1785 62.7407 20.0774C62.4086 18.9762 62.2338 17.8051 62.2163 16.5641L62.3474 6.3051C62.3649 5.83317 62.5397 5.4399 62.8718 5.12527C63.2039 4.79317 63.6059 4.61839 64.0778 4.60091Z" fill="white"/>
<path d="M39.5745 7.46802C40.0639 7.46802 40.4834 7.63407 40.833 7.96617C41.1826 8.28079 41.3661 8.6828 41.3836 9.17221V9.67036C41.3661 10.387 41.4098 11.0512 41.5147 11.663C41.6371 12.2572 41.9167 12.7904 42.3537 13.2623C42.7907 13.7342 43.3412 13.9877 44.0054 14.0226H51.3728V2.81298C51.3728 2.32357 51.5476 1.92156 51.8972 1.60694C52.2642 1.27484 52.6925 1.10879 53.1819 1.10879C54.2306 1.19618 54.8074 1.76425 54.9123 2.81298V15.3073C54.9123 16.7056 54.72 18.0253 54.3355 19.2663C53.9859 20.3675 53.4091 21.3026 52.6051 22.0717C51.8185 22.8233 50.8135 23.234 49.59 23.3039L33.3692 23.7759C32.8973 23.7584 32.4953 23.5923 32.1632 23.2777C31.8486 22.9456 31.6825 22.5436 31.665 22.0717C31.665 21.5823 31.8223 21.1628 32.137 20.8132C32.4691 20.4636 32.8798 20.2801 33.3692 20.2626L48.6985 19.7907C49.3627 19.7557 49.9133 19.5023 50.3503 19.0303C50.7523 18.5934 51.0232 18.0952 51.1631 17.5359H43.114C41.8905 17.466 40.8767 17.0552 40.0727 16.3036C39.2861 15.5345 38.7181 14.5994 38.3685 13.4982C38.0364 12.3971 37.8616 11.226 37.8441 9.98498V9.17221C37.8616 8.70028 38.0364 8.30701 38.3685 7.99238C38.7006 7.66029 39.1026 7.4855 39.5745 7.46802Z" fill="#B890FF"/>
<path d="M14.6687 22.0201C14.6687 21.5307 14.8348 21.1199 15.1669 20.7878C15.5164 20.4382 15.9359 20.2634 16.4253 20.2634H31.5779L30.8962 18.3233C30.6165 17.6066 30.3369 16.9337 30.0572 16.3045C29.795 15.6577 29.4891 15.0722 29.1396 14.5478C28.8249 14.0235 28.4666 13.7438 28.0646 13.7088C27.6451 13.7438 27.2693 14.0235 26.9372 14.5478C26.6051 15.0722 26.2993 15.6577 26.0196 16.3045C25.7574 16.9337 25.4865 17.6066 25.2068 18.3233L18.5685 34.1499C18.3937 34.5169 18.1665 34.8228 17.8868 35.0675C17.6246 35.2948 17.2226 35.4084 16.6808 35.4084C16.1739 35.4084 15.7544 35.2336 15.4223 34.884C15.1076 34.5344 14.9678 34.1149 15.0028 33.6255C15.0203 33.3983 15.0727 33.1885 15.1601 32.9963L22.1917 16.5404C22.9957 14.5828 23.7998 13.0009 24.6038 11.7949C25.3903 10.6063 26.544 10.0033 28.0646 9.98583C29.5678 10.0033 30.7127 10.6063 31.4992 11.7949C32.3033 12.966 33.1073 14.5478 33.9113 16.5404L36.0494 22.5977C35.0057 21.1007 36.1799 22.6606 36.1974 22.8878C36.2323 23.3772 36.2732 22.5382 35.9411 22.8878C35.6265 23.2374 35.2157 23.4122 34.7089 23.4122C34.1321 23.4122 33.7038 23.2986 33.4242 23.0713C33.162 22.8266 32.754 23.7792 32.5793 23.4122L33.4242 23.7767H16.4253C15.9359 23.7767 15.5252 23.6019 15.1931 23.2523C14.8435 22.9202 14.6687 22.5095 14.6687 22.0201Z" fill="#B890FF"/>
<path d="M5.53208 24.718C4.9378 24.718 4.34351 24.6132 3.74923 24.4034C3.17243 24.1937 2.6131 23.8878 2.07125 23.4858C1.52941 23.0663 1.05748 22.5157 0.65546 21.834C0.253444 21.1523 0.0349579 20.3396 0 19.3957V1.7042C0 1.21479 0.174789 0.81277 0.524368 0.49815C0.891425 0.16605 1.31966 0 1.80907 0C2.85781 0.0873947 3.42587 0.65546 3.51326 1.7042V19.1859C3.53074 19.6054 3.61814 19.9638 3.77545 20.2609C3.93276 20.5406 4.10755 20.7678 4.29982 20.9426C4.49208 21.0999 4.68435 21.2222 4.87662 21.3096C5.08637 21.3796 5.29612 21.4145 5.50586 21.4145C5.71561 21.4145 5.92536 21.3796 6.1351 21.3096C6.34485 21.2222 6.54586 21.0999 6.73813 20.9426C6.9304 20.7678 7.10519 20.5406 7.2625 20.2609C7.41981 19.9638 7.49846 19.6054 7.49846 19.1859V9.93085C7.49846 9.44144 7.67325 9.03943 8.02283 8.72481C8.38989 8.39271 8.81812 8.22666 9.30753 8.22666C10.3563 8.31405 10.9331 8.88212 11.0379 9.93085V19.1859C11.0554 19.6054 11.1428 19.955 11.3001 20.2347C11.4574 20.5318 11.6322 20.7678 11.8245 20.9426C12.0168 21.0999 12.209 21.2222 12.4013 21.3096C12.611 21.3796 12.8208 21.4145 13.0305 21.4145C13.2403 21.4145 13.45 21.3796 13.6598 21.3096C13.8695 21.2222 14.0705 21.0999 14.2628 20.9426C14.4551 20.7678 14.6299 20.5406 14.7872 20.2609C14.9445 19.9638 15.0231 19.6054 15.0231 19.1859V9.93085C15.0231 9.44144 15.1979 9.03943 15.5475 8.72481C15.9146 8.39271 16.3428 8.22666 16.8322 8.22666C17.8809 8.31405 18.4578 8.88212 18.5626 9.93085V19.3957C18.5626 20.3396 18.3529 21.1523 17.9334 21.834C17.5314 22.5157 17.0594 23.0663 16.5176 23.4858C15.9932 23.8878 15.4339 24.1937 14.8396 24.4034C14.2628 24.6132 13.6685 24.718 13.0568 24.718C12.4625 24.718 11.8682 24.6132 11.2739 24.4034C10.6971 24.1937 10.1378 23.879 9.59593 23.4595C9.49106 23.3896 9.39493 23.311 9.30753 23.2236C9.20266 23.311 9.10652 23.3896 9.01913 23.4595C8.47728 23.879 7.90922 24.1937 7.31493 24.4034C6.73813 24.6132 6.14384 24.718 5.53208 24.718Z" fill="#B890FF"/>
<path d="M108.899 29.472H110.105H119.02C119.509 29.4895 119.911 29.673 120.226 30.0226C120.558 30.3722 120.724 30.7917 120.724 31.2811C120.637 32.3298 120.068 32.8979 119.02 32.9853H109.791C109.127 33.0202 108.576 33.2737 108.139 33.7456C107.702 34.2175 107.379 34.7594 107.169 35.3712C106.977 35.9654 106.881 36.5772 106.881 37.2064C106.881 37.8357 106.977 38.4562 107.169 39.0679C107.379 39.6622 107.702 40.1953 108.139 40.6673C108.576 41.1392 109.127 41.3926 109.791 41.4276H119.02C119.509 41.4451 119.911 41.6286 120.226 41.9782C120.558 42.3278 120.724 42.7473 120.724 43.2367C120.706 43.7086 120.532 44.1106 120.2 44.4427C119.885 44.7573 119.492 44.9234 119.02 44.9409H109.398H108.899C107.676 44.871 106.662 44.4078 105.858 43.5513C105.072 42.6773 104.503 41.6898 104.154 40.5886C103.822 39.4874 103.656 38.3601 103.656 37.2064C103.656 36.0528 103.831 34.9254 104.18 33.8243C104.53 32.7231 105.098 31.7443 105.884 30.8878C106.671 30.0139 107.676 29.5419 108.899 29.472ZM120.671 37.1016C120.671 37.591 120.497 38.0017 120.147 38.3338C119.815 38.6834 119.404 38.8582 118.915 38.8582H110.997C110.508 38.8582 110.088 38.6922 109.738 38.3601C109.406 38.0105 109.24 37.591 109.24 37.1016C109.24 36.6122 109.406 36.1927 109.738 35.8431C110.088 35.511 110.508 35.3449 110.997 35.3449H118.915C119.404 35.3449 119.815 35.5197 120.147 35.8693C120.497 36.2014 120.671 36.6122 120.671 37.1016Z" fill="white"/>
<path d="M82.3857 30.6468C82.3857 30.1574 82.5518 29.7466 82.8839 29.4145C83.2335 29.0649 83.653 28.8901 84.1424 28.8901H99.4015C99.8909 28.8901 100.31 29.0562 100.66 29.3883C100.992 29.7379 101.158 30.1574 101.158 30.6468C101.158 31.1362 100.983 31.5557 100.634 31.9053C100.302 32.2374 99.8909 32.4034 99.4015 32.4034H93.5548V43.0219C93.4499 44.0706 92.8731 44.6387 91.8244 44.726C91.335 44.726 90.9067 44.5687 90.5397 44.2541C90.1901 43.922 90.0153 43.5113 90.0153 43.0219V32.4034H84.1424C83.653 32.4034 83.2422 32.2286 82.9101 31.879C82.5605 31.5469 82.3857 31.1362 82.3857 30.6468Z" fill="white"/>
<path d="M69.3291 43.4151C69.3291 42.9257 69.4952 42.515 69.8273 42.1829C70.1769 41.8333 70.5964 41.6585 71.0858 41.6585H75.0972L73.9935 36.6711C73.7138 35.9544 73.6464 35.2088 73.3668 34.5795C73.1046 33.9328 72.7987 33.3473 72.4491 32.8229C72.1345 32.2985 71.7762 32.0189 71.3742 31.9839C70.9547 32.0189 70.5789 32.2985 70.2468 32.8229C69.9147 33.3473 69.6088 33.9328 69.3291 34.5795C69.0669 35.2088 68.796 35.8817 68.5164 36.5983L64.0119 49.8268C63.8371 50.1939 63.6098 50.4997 63.3302 50.7444C63.068 50.9717 62.666 51.0853 62.1241 51.0853C61.6172 51.0853 61.1978 50.9105 60.8657 50.5609C60.551 50.2113 60.4112 49.7918 60.4462 49.3024C60.4636 49.0752 60.5161 48.8655 60.6035 48.6732L65.5012 34.8155C66.3053 32.8579 67.1093 31.276 67.9133 30.07C68.6999 28.8814 69.8535 28.2784 71.3742 28.2609C72.8774 28.2784 74.0222 28.8814 74.8088 30.07C75.6128 31.2411 76.4168 32.8229 77.2209 34.8155L80.1049 42.2615C80.1923 42.4538 80.2447 42.6635 80.2622 42.8908C80.2971 43.3802 80.1486 43.7997 79.8165 44.1492C79.5019 44.4988 79.0911 44.6736 78.5842 44.6736C78.0074 44.6736 77.5792 44.56 77.2995 44.3328C77.0373 44.0881 76.8188 43.7822 76.6441 43.4151L76.3294 44.8571H71.0595C70.5701 44.8571 70.1594 44.6824 69.8273 44.3328C69.4777 44.0007 69.3291 43.9045 69.3291 43.4151Z" fill="white"/>
<path d="M46.8861 28.1822C47.4978 28.1822 48.0921 28.2871 48.6689 28.4969C49.2632 28.7066 49.8313 29.0125 50.3731 29.4145C50.4605 29.5019 50.5567 29.5893 50.6615 29.6767C50.7489 29.5893 50.8451 29.5019 50.9499 29.4145C51.4918 29.0125 52.0511 28.7066 52.6279 28.4969C53.2222 28.2871 53.8165 28.1822 54.4108 28.1822C55.0225 28.1822 55.6168 28.2871 56.1936 28.4969C56.7879 28.7066 57.3472 29.0212 57.8716 29.4407C58.4134 29.8427 58.8854 30.3846 59.2874 31.0663C59.7069 31.7479 59.9166 32.5607 59.9166 33.5046V42.9694C59.8118 44.0181 59.2349 44.5862 58.1862 44.6736C57.6968 44.6736 57.2686 44.5163 56.9015 44.2017C56.5519 43.8696 56.3771 43.4588 56.3771 42.9694V33.7143C56.3771 33.2948 56.2985 32.9452 56.1412 32.6656C55.9839 32.3684 55.8091 32.1412 55.6168 31.9839C55.4245 31.8091 55.2235 31.6868 55.0138 31.6168C54.804 31.5295 54.5943 31.4858 54.3845 31.4858C54.1748 31.4858 53.9651 31.5295 53.7553 31.6168C53.563 31.6868 53.3708 31.8091 53.1785 31.9839C52.9862 32.1412 52.8114 32.3684 52.6541 32.6656C52.4968 32.9452 52.4094 33.2948 52.3919 33.7143V42.9694C52.2871 44.0181 51.7103 44.5862 50.6615 44.6736C50.1721 44.6736 49.7439 44.5163 49.3768 44.2017C49.0273 43.8696 48.8525 43.4588 48.8525 42.9694V33.7143C48.8525 33.2948 48.7738 32.9452 48.6165 32.6656C48.4592 32.3684 48.2844 32.1412 48.0921 31.9839C47.8999 31.8091 47.6989 31.6868 47.4891 31.6168C47.2794 31.5295 47.0696 31.4858 46.8599 31.4858C46.6501 31.4858 46.4404 31.5295 46.2306 31.6168C46.0384 31.6868 45.8461 31.8091 45.6538 31.9839C45.4616 32.1412 45.2868 32.3684 45.1295 32.6656C44.9721 32.9452 44.8847 33.2948 44.8673 33.7143V42.9694C44.7799 44.0181 44.2118 44.5862 43.1631 44.6736C42.6737 44.6736 42.2454 44.5163 41.8784 44.2017C41.5288 43.8696 41.354 43.4588 41.354 42.9694V33.5046C41.389 32.5607 41.6074 31.7479 42.0095 31.0663C42.4115 30.3846 42.8834 29.8427 43.4253 29.4407C43.9671 29.0212 44.5264 28.7066 45.1032 28.4969C45.6975 28.2871 46.2918 28.1822 46.8861 28.1822Z" fill="white"/>
<path d="M41.4082 43.2747C41.4082 42.348 42.1595 41.5968 43.0862 41.5968H118.974C119.901 41.5968 120.652 42.348 120.652 43.2747C120.652 44.2015 119.901 44.9527 118.974 44.9527H43.0862C42.1595 44.9527 41.4082 44.2015 41.4082 43.2747Z" fill="white"/>
</svg>
