<svg width="1116" height="472" viewBox="0 0 1116 472" fill="none" xmlns="http://www.w3.org/2000/svg">
<path d="M877.93 79.8672C886.164 80.0286 893.51 82.612 899.969 87.6172C906.427 92.6224 911.594 98.5964 915.469 105.539C919.505 112.482 922.492 119.828 924.43 127.578C926.367 135.328 927.336 143.24 927.336 151.312C927.336 161.969 925.641 172.464 922.25 182.797C919.021 192.969 913.612 202.01 906.023 209.922C898.596 217.833 889.232 222.112 877.93 222.758H793.406C782.104 222.273 772.659 218.076 765.07 210.164C757.482 202.253 752.073 193.13 748.844 182.797C745.776 172.464 744.242 161.969 744.242 151.312C744.242 140.656 745.857 130.242 749.086 120.07C752.315 109.737 757.643 100.615 765.07 92.7031C772.659 84.6302 782.104 80.3516 793.406 79.8672H798.008H873.328H877.93ZM869.695 190.305C875.831 189.982 880.917 187.721 884.953 183.523C889.151 179.164 892.138 174.159 893.914 168.508C895.69 162.857 896.578 157.125 896.578 151.312C896.578 145.5 895.609 139.849 893.672 134.359C891.896 128.708 888.99 123.703 884.953 119.344C880.917 114.984 875.831 112.643 869.695 112.32H800.914C794.779 112.643 789.693 114.984 785.656 119.344C781.62 123.703 778.633 128.708 776.695 134.359C774.919 139.849 774.031 145.5 774.031 151.312C774.031 157.125 774.919 162.857 776.695 168.508C778.471 174.159 781.378 179.164 785.414 183.523C789.612 187.721 794.779 189.982 800.914 190.305H869.695Z" fill="white"/>
<path d="M591.906 42.5C596.427 42.5 600.302 44.0339 603.531 47.1016C606.76 50.0078 608.456 53.7214 608.617 58.2422L607.406 150.102C607.245 156.721 607.648 162.857 608.617 168.508C609.747 173.997 612.331 178.922 616.367 183.281C620.404 187.641 625.49 189.982 631.625 190.305H800C804.521 190.466 808.234 192.161 811.141 195.391C814.208 198.62 815.742 202.495 815.742 207.016C815.581 211.375 813.966 215.089 810.898 218.156C807.992 221.062 804.359 222.596 800 222.758H623.391C612.089 222.112 602.724 218.318 595.297 211.375C588.031 204.271 582.784 195.633 579.555 185.461C576.487 175.289 574.872 164.471 574.711 153.008L575.922 58.2422C576.083 53.8828 577.698 50.25 580.766 47.3438C583.833 44.276 587.547 42.6615 591.906 42.5Z" fill="white"/>
<path d="M365.562 68.9844C370.083 68.9844 373.958 70.5182 377.188 73.5859C380.417 76.4922 382.112 80.2057 382.273 84.7266V89.3281C382.112 95.9479 382.516 102.083 383.484 107.734C384.615 113.224 387.198 118.148 391.234 122.508C395.271 126.867 400.357 129.208 406.492 129.531H474.547V25.9844C474.547 21.4635 476.161 17.75 479.391 14.8438C482.781 11.776 486.737 10.2422 491.258 10.2422C500.945 11.0495 506.273 16.2969 507.242 25.9844V141.398C507.242 154.315 505.466 166.505 501.914 177.969C498.685 188.141 493.357 196.779 485.93 203.883C478.664 210.826 469.38 214.62 458.078 215.266L308.242 219.625C303.883 219.464 300.169 217.93 297.102 215.023C294.195 211.956 292.661 208.242 292.5 203.883C292.5 199.362 293.953 195.487 296.859 192.258C299.927 189.029 303.721 187.333 308.242 187.172L449.844 182.812C455.979 182.49 461.065 180.148 465.102 175.789C468.815 171.753 471.318 167.151 472.609 161.984H398.258C386.956 161.339 377.591 157.544 370.164 150.602C362.898 143.497 357.651 134.859 354.422 124.688C351.354 114.516 349.74 103.698 349.578 92.2344V84.7266C349.74 80.3672 351.354 76.7344 354.422 73.8281C357.49 70.7604 361.203 69.1458 365.562 68.9844Z" fill="white"/>
<path d="M135.5 203.406C135.5 198.885 137.034 195.091 140.102 192.023C143.331 188.794 147.206 187.18 151.727 187.18H291.695L285.398 169.258C282.815 162.638 280.232 156.422 277.648 150.609C275.227 144.635 272.401 139.227 269.172 134.383C266.266 129.539 262.956 126.956 259.242 126.633C255.367 126.956 251.896 129.539 248.828 134.383C245.761 139.227 242.935 144.635 240.352 150.609C237.93 156.422 235.427 162.638 232.844 169.258L171.523 315.453C169.909 318.844 167.81 321.669 165.227 323.93C162.805 326.029 159.091 327.078 154.086 327.078C149.404 327.078 145.529 325.464 142.461 322.234C139.555 319.005 138.263 315.13 138.586 310.609C138.747 308.51 139.232 306.573 140.039 304.797L204.992 152.789C212.419 134.706 219.846 120.094 227.274 108.953C234.539 97.974 245.195 92.4036 259.242 92.2422C273.128 92.4036 283.703 97.974 290.969 108.953C298.396 119.771 305.823 134.383 313.25 152.789L333 208.742C323.359 194.914 334.206 209.323 334.367 211.422C334.69 215.943 335.068 208.193 332 211.422C329.094 214.651 325.299 216.266 320.617 216.266C315.289 216.266 311.333 215.216 308.75 213.117C306.328 210.857 302.56 219.656 300.945 216.266L308.75 219.633H151.727C147.206 219.633 143.411 218.018 140.344 214.789C137.115 211.721 135.5 207.927 135.5 203.406Z" fill="white"/>
<path d="M51.1016 228.328C45.612 228.328 40.1224 227.359 34.6328 225.422C29.3047 223.484 24.138 220.659 19.1328 216.945C14.1276 213.07 9.76823 207.984 6.05469 201.688C2.34115 195.391 0.322917 187.883 0 179.164V15.7422C0 11.2214 1.61458 7.50781 4.84375 4.60156C8.23438 1.53385 12.1901 0 16.7109 0C26.3984 0.807292 31.6458 6.05469 32.4531 15.7422V177.227C32.6146 181.102 33.4219 184.411 34.875 187.156C36.3281 189.74 37.9427 191.839 39.7188 193.453C41.4948 194.906 43.2708 196.036 45.0469 196.844C46.9844 197.49 48.9219 197.812 50.8594 197.812C52.7969 197.812 54.7344 197.49 56.6719 196.844C58.6094 196.036 60.4661 194.906 62.2422 193.453C64.0182 191.839 65.6328 189.74 67.0859 187.156C68.5391 184.411 69.2656 181.102 69.2656 177.227V91.7344C69.2656 87.2135 70.8802 83.5 74.1094 80.5938C77.5 77.526 81.4557 75.9922 85.9766 75.9922C95.6641 76.7995 100.992 82.0469 101.961 91.7344V177.227C102.122 181.102 102.93 184.331 104.383 186.914C105.836 189.659 107.451 191.839 109.227 193.453C111.003 194.906 112.779 196.036 114.555 196.844C116.492 197.49 118.43 197.812 120.367 197.812C122.305 197.812 124.242 197.49 126.18 196.844C128.117 196.036 129.974 194.906 131.75 193.453C133.526 191.839 135.141 189.74 136.594 187.156C138.047 184.411 138.773 181.102 138.773 177.227V91.7344C138.773 87.2135 140.388 83.5 143.617 80.5938C147.008 77.526 150.964 75.9922 155.484 75.9922C165.172 76.7995 170.5 82.0469 171.469 91.7344V179.164C171.469 187.883 169.531 195.391 165.656 201.688C161.943 207.984 157.583 213.07 152.578 216.945C147.734 220.659 142.568 223.484 137.078 225.422C131.75 227.359 126.26 228.328 120.609 228.328C115.12 228.328 109.63 227.359 104.141 225.422C98.8125 223.484 93.6458 220.578 88.6406 216.703C87.6719 216.057 86.7839 215.331 85.9766 214.523C85.0078 215.331 84.1198 216.057 83.3125 216.703C78.3073 220.578 73.0599 223.484 67.5703 225.422C62.2422 227.359 56.7526 228.328 51.1016 228.328Z" fill="white"/>
<path d="M1005.94 272.242H1017.08H1099.42C1103.94 272.404 1107.66 274.099 1110.56 277.328C1113.63 280.557 1115.16 284.432 1115.16 288.953C1114.36 298.641 1109.11 303.888 1099.42 304.695H1014.17C1008.04 305.018 1002.95 307.359 998.914 311.719C994.878 316.078 991.891 321.083 989.953 326.734C988.177 332.224 987.289 337.875 987.289 343.688C987.289 349.5 988.177 355.232 989.953 360.883C991.891 366.372 994.878 371.297 998.914 375.656C1002.95 380.016 1008.04 382.357 1014.17 382.68H1099.42C1103.94 382.841 1107.66 384.536 1110.56 387.766C1113.63 390.995 1115.16 394.87 1115.16 399.391C1115 403.75 1113.39 407.464 1110.32 410.531C1107.41 413.438 1103.78 414.971 1099.42 415.133H1010.54H1005.94C994.635 414.487 985.271 410.208 977.844 402.297C970.578 394.224 965.331 385.102 962.102 374.93C959.034 364.758 957.5 354.344 957.5 343.688C957.5 333.031 959.115 322.617 962.344 312.445C965.573 302.273 970.82 293.232 978.086 285.32C985.352 277.247 994.635 272.888 1005.94 272.242ZM1114.68 342.719C1114.68 347.24 1113.07 351.034 1109.84 354.102C1106.77 357.331 1102.97 358.945 1098.45 358.945H1025.31C1020.79 358.945 1016.92 357.411 1013.69 354.344C1010.62 351.115 1009.09 347.24 1009.09 342.719C1009.09 338.198 1010.62 334.323 1013.69 331.094C1016.92 328.026 1020.79 326.492 1025.31 326.492H1098.45C1102.97 326.492 1106.77 328.107 1109.84 331.336C1113.07 334.404 1114.68 338.198 1114.68 342.719Z" fill="white"/>
<path d="M761.023 283.094C761.023 278.573 762.557 274.779 765.625 271.711C768.854 268.482 772.729 266.867 777.25 266.867H918.203C922.724 266.867 926.599 268.401 929.828 271.469C932.896 274.698 934.43 278.573 934.43 283.094C934.43 287.615 932.815 291.49 929.586 294.719C926.518 297.786 922.724 299.32 918.203 299.32H864.195V397.406C863.227 407.094 857.898 412.341 848.211 413.148C843.69 413.148 839.734 411.695 836.344 408.789C833.115 405.721 831.5 401.927 831.5 397.406V299.32H777.25C772.729 299.32 768.935 297.706 765.867 294.477C762.638 291.409 761.023 287.615 761.023 283.094Z" fill="white"/>
<path d="M640.414 401.039C640.414 396.518 641.948 392.724 645.016 389.656C648.245 386.427 652.12 384.812 656.641 384.812H693.695L683.5 338.742C680.917 332.122 680.294 325.234 677.711 319.422C675.289 313.448 672.463 308.039 669.234 303.195C666.328 298.352 663.018 295.768 659.305 295.445C655.43 295.768 651.958 298.352 648.891 303.195C645.823 308.039 642.997 313.448 640.414 319.422C637.992 325.234 635.49 331.451 632.906 338.07L591.297 460.266C589.682 463.656 587.583 466.482 585 468.742C582.578 470.841 578.864 471.891 573.859 471.891C569.177 471.891 565.302 470.276 562.234 467.047C559.328 463.818 558.036 459.943 558.359 455.422C558.521 453.323 559.005 451.385 559.812 449.609L605.055 321.602C612.482 303.518 619.909 288.906 627.336 277.766C634.601 266.786 645.258 261.216 659.305 261.055C673.19 261.216 683.765 266.786 691.031 277.766C698.458 288.583 705.885 303.195 713.312 321.602L739.953 390.383C740.76 392.159 741.245 394.096 741.406 396.195C741.729 400.716 740.357 404.591 737.289 407.82C734.383 411.049 730.588 412.664 725.906 412.664C720.578 412.664 716.622 411.615 714.039 409.516C711.617 407.255 709.599 404.43 707.984 401.039L705.078 414.359H656.398C651.878 414.359 648.083 412.745 645.016 409.516C641.786 406.448 640.414 405.56 640.414 401.039Z" fill="white"/>
<path d="M433.102 260.328C438.753 260.328 444.242 261.297 449.57 263.234C455.06 265.172 460.307 267.997 465.312 271.711C466.12 272.518 467.008 273.326 467.977 274.133C468.784 273.326 469.672 272.518 470.641 271.711C475.646 267.997 480.812 265.172 486.141 263.234C491.63 261.297 497.12 260.328 502.609 260.328C508.26 260.328 513.75 261.297 519.078 263.234C524.568 265.172 529.734 268.078 534.578 271.953C539.583 275.667 543.943 280.672 547.656 286.969C551.531 293.266 553.469 300.773 553.469 309.492V396.922C552.5 406.609 547.172 411.857 537.484 412.664C532.964 412.664 529.008 411.211 525.617 408.305C522.388 405.237 520.773 401.443 520.773 396.922V311.43C520.773 307.555 520.047 304.326 518.594 301.742C517.141 298.997 515.526 296.898 513.75 295.445C511.974 293.831 510.117 292.701 508.18 292.055C506.242 291.247 504.305 290.844 502.367 290.844C500.43 290.844 498.492 291.247 496.555 292.055C494.779 292.701 493.003 293.831 491.227 295.445C489.451 296.898 487.836 298.997 486.383 301.742C484.93 304.326 484.122 307.555 483.961 311.43V396.922C482.992 406.609 477.664 411.857 467.977 412.664C463.456 412.664 459.5 411.211 456.109 408.305C452.88 405.237 451.266 401.443 451.266 396.922V311.43C451.266 307.555 450.539 304.326 449.086 301.742C447.633 298.997 446.018 296.898 444.242 295.445C442.466 293.831 440.609 292.701 438.672 292.055C436.734 291.247 434.797 290.844 432.859 290.844C430.922 290.844 428.984 291.247 427.047 292.055C425.271 292.701 423.495 293.831 421.719 295.445C419.943 296.898 418.328 298.997 416.875 301.742C415.422 304.326 414.615 307.555 414.453 311.43V396.922C413.646 406.609 408.398 411.857 398.711 412.664C394.19 412.664 390.234 411.211 386.844 408.305C383.615 405.237 382 401.443 382 396.922V309.492C382.323 300.773 384.341 293.266 388.055 286.969C391.768 280.672 396.128 275.667 401.133 271.953C406.138 268.078 411.305 265.172 416.633 263.234C422.122 261.297 427.612 260.328 433.102 260.328Z" fill="white"/>
<path d="M382.5 399.742C382.5 391.182 389.44 384.242 398 384.242H1099C1107.56 384.242 1114.5 391.182 1114.5 399.742C1114.5 408.303 1107.56 415.242 1099 415.242H398C389.44 415.242 382.5 408.303 382.5 399.742Z" fill="white"/>
</svg>
